<svg width="41" height="40" viewBox="0 0 41 40" fill="none" xmlns="http://www.w3.org/2000/svg">
<path d="M26.3327 14.6667V10.6667C26.3327 9.748 25.5847 9 24.666 9H11.3327C10.414 9 9.66602 9.748 9.66602 10.6667V29.3333C9.66602 30.252 10.414 31 11.3327 31H24.666C25.5847 31 26.3327 30.252 26.3327 29.3333V28C26.3327 27.448 26.7807 27 27.3327 27C27.8847 27 28.3327 27.448 28.3327 28V29.3333C28.3327 31.356 26.6887 33 24.666 33H11.3327C9.31002 33 7.66602 31.356 7.66602 29.3333V10.6667C7.66602 8.644 9.31002 7 11.3327 7H24.666C26.6887 7 28.3327 8.644 28.3327 10.6667V14.6667C28.3327 15.2187 27.8847 15.6667 27.3327 15.6667C26.7807 15.6667 26.3327 15.2187 26.3327 14.6667ZM20.3327 13.3333C20.3327 12.7813 19.8847 12.3333 19.3327 12.3333H12.666C12.114 12.3333 11.666 12.7813 11.666 13.3333C11.666 13.8853 12.114 14.3333 12.666 14.3333H19.3327C19.8847 14.3333 20.3327 13.8853 20.3327 13.3333ZM16.3327 17.3333C16.3327 16.7813 15.8847 16.3333 15.3327 16.3333H12.666C12.114 16.3333 11.666 16.7813 11.666 17.3333C11.666 17.8853 12.114 18.3333 12.666 18.3333H15.3327C15.8847 18.3333 16.3327 17.8853 16.3327 17.3333ZM12.666 20.3333C12.114 20.3333 11.666 20.7813 11.666 21.3333C11.666 21.8853 12.114 22.3333 12.666 22.3333H13.9993C14.5513 22.3333 14.9993 21.8853 14.9993 21.3333C14.9993 20.7813 14.5513 20.3333 13.9993 20.3333H12.666Z" fill="#112D55"/>
<path d="M33.3724 27.2932L31.2764 25.1972C31.943 24.0612 32.3324 22.7438 32.3324 21.3332C32.3324 17.1065 28.8924 13.6665 24.6657 13.6665C20.439 13.6665 16.999 17.1065 16.999 21.3332C16.999 25.5598 20.439 28.9998 24.6657 28.9998C26.759 28.9998 28.6577 28.1545 30.0417 26.7905L31.9577 28.7065C32.1524 28.9012 32.4084 28.9998 32.6644 28.9998C32.9204 28.9998 33.1764 28.9025 33.371 28.7065C33.7617 28.3158 33.7617 27.6825 33.371 27.2918L33.3724 27.2932ZM24.6657 26.9998C21.5417 26.9998 18.999 24.4585 18.999 21.3332C18.999 18.2078 21.5417 15.6665 24.6657 15.6665C27.7897 15.6665 30.3324 18.2092 30.3324 21.3332C30.3324 24.4572 27.7897 26.9998 24.6657 26.9998ZM28.131 19.3972C28.463 19.8385 28.375 20.4652 27.935 20.7985L24.379 23.4772C24.2004 23.6118 23.9884 23.6785 23.7764 23.6785C23.563 23.6785 23.351 23.6105 23.1724 23.4758L21.395 22.1292C20.9537 21.7958 20.867 21.1692 21.2004 20.7292C21.535 20.2892 22.163 20.2025 22.6017 20.5345L23.7777 21.4238L26.7297 19.1998C27.171 18.8678 27.7977 18.9558 28.131 19.3958V19.3972Z" fill="#5BB789"/>
</svg>
