<svg width="40" height="40" viewBox="0 0 40 40" fill="none" xmlns="http://www.w3.org/2000/svg">
<path d="M23.9997 7H15.9997C13.977 7 12.333 8.644 12.333 10.6667V28C12.333 29.6733 13.465 31.072 14.9997 31.5107V32C14.9997 32.552 15.4477 33 15.9997 33C16.5517 33 16.9997 32.552 16.9997 32V31.6667H22.9997V32C22.9997 32.552 23.4477 33 23.9997 33C24.5517 33 24.9997 32.552 24.9997 32V31.5107C26.5343 31.072 27.6663 29.6733 27.6663 28V10.6667C27.6663 8.644 26.0223 7 23.9997 7ZM15.9997 9H23.9997C24.9183 9 25.6663 9.748 25.6663 10.6667V12.3333H14.333V10.6667C14.333 9.748 15.081 9 15.9997 9ZM23.9997 29.6667H15.9997C15.081 29.6667 14.333 28.9187 14.333 28V14.3333H25.6663V28C25.6663 28.9187 24.9183 29.6667 23.9997 29.6667Z" fill="#112D55"/>
<path d="M21 21.3335V22.6668C21 23.2188 20.552 23.6668 20 23.6668C19.448 23.6668 19 23.2188 19 22.6668V21.3335C19 20.7815 19.448 20.3335 20 20.3335C20.552 20.3335 21 20.7815 21 21.3335ZM20 25.7335C19.4853 25.7335 19.0667 26.1522 19.0667 26.6668C19.0667 27.1815 19.4853 27.6002 20 27.6002C20.5147 27.6002 20.9333 27.1815 20.9333 26.6668C20.9333 26.1522 20.5147 25.7335 20 25.7335Z" fill="#5BB789"/>
</svg>
