<svg width="40" height="40" viewBox="0 0 40 40" fill="none" xmlns="http://www.w3.org/2000/svg">
<path d="M24.7067 12.6265L20.7067 8.6265C20.316 8.23583 19.6827 8.23583 19.292 8.6265L15.292 12.6265C14.9014 13.0172 14.9014 13.6505 15.292 14.0412C15.6827 14.4318 16.316 14.4318 16.7067 14.0412L19 11.7478V25.3332C19 25.8852 19.448 26.3332 20 26.3332C20.552 26.3332 21 25.8852 21 25.3332V11.7478L23.2934 14.0412C23.488 14.2358 23.744 14.3345 24 14.3345C24.256 14.3345 24.512 14.2372 24.7067 14.0412C25.0974 13.6505 25.0974 13.0172 24.7067 12.6265Z" fill="#5BB789"/>
<path d="M27.9997 31.6665H11.9997C9.97701 31.6665 8.33301 30.0225 8.33301 27.9998V21.3332C8.33301 19.3105 9.97701 17.6665 11.9997 17.6665H13.333C13.885 17.6665 14.333 18.1145 14.333 18.6665C14.333 19.2185 13.885 19.6665 13.333 19.6665H11.9997C11.081 19.6665 10.333 20.4145 10.333 21.3332V27.9998C10.333 28.9185 11.081 29.6665 11.9997 29.6665H27.9997C28.9183 29.6665 29.6663 28.9185 29.6663 27.9998V21.3332C29.6663 20.4145 28.9183 19.6665 27.9997 19.6665H26.6663C26.1143 19.6665 25.6663 19.2185 25.6663 18.6665C25.6663 18.1145 26.1143 17.6665 26.6663 17.6665H27.9997C30.0223 17.6665 31.6663 19.3105 31.6663 21.3332V27.9998C31.6663 30.0225 30.0223 31.6665 27.9997 31.6665Z" fill="#112D55"/>
</svg>
