<svg width="41" height="40" viewBox="0 0 41 40" fill="none" xmlns="http://www.w3.org/2000/svg">
<path d="M24.2701 32.4828C24.1261 32.4828 23.9807 32.4628 23.8381 32.4254C23.4074 32.3094 23.0474 32.0348 22.8247 31.6481C22.3047 30.7468 21.3727 30.2094 20.3327 30.2094C19.2927 30.2094 18.3607 30.7468 17.8407 31.6481C17.6181 32.0348 17.2581 32.3094 16.8274 32.4254C16.3954 32.5401 15.9461 32.4801 15.5621 32.2561L12.0994 30.2574C11.7141 30.0361 11.4381 29.6761 11.3221 29.2468C11.2074 28.8161 11.2661 28.3668 11.4887 27.9814C12.0087 27.0801 12.0087 26.0054 11.4887 25.1054C10.9687 24.2041 10.0381 23.6668 8.99674 23.6668C8.07808 23.6668 7.33008 22.9188 7.33008 22.0001V18.0001C7.33008 17.0814 8.07808 16.3334 8.99674 16.3334C10.0367 16.3334 10.9687 15.7961 11.4887 14.8948C12.0087 13.9948 12.0087 12.9201 11.4887 12.0188C11.2661 11.6334 11.2074 11.1841 11.3221 10.7534C11.4381 10.3241 11.7141 9.9641 12.0994 9.74143L15.5621 7.74276C15.9474 7.51876 16.3954 7.4601 16.8261 7.57476C17.2567 7.69076 17.6167 7.96543 17.8394 8.3521C18.3594 9.25343 19.2914 9.79076 20.3314 9.79076C21.3714 9.79076 22.3034 9.25343 22.8234 8.3521C23.0461 7.96543 23.4061 7.69076 23.8367 7.57476C24.2687 7.4601 24.7167 7.51876 25.1021 7.7441L28.5647 9.74276C28.9501 9.9641 29.2261 10.3241 29.3421 10.7534C29.4567 11.1841 29.3981 11.6334 29.1754 12.0188C28.6554 12.9201 28.6554 13.9948 29.1754 14.8948C29.6954 15.7961 30.6261 16.3334 31.6674 16.3334C32.5861 16.3334 33.3341 17.0814 33.3341 18.0001V22.0001C33.3341 22.9188 32.5861 23.6668 31.6674 23.6668C30.6274 23.6668 29.6954 24.2041 29.1754 25.1054C28.6554 26.0054 28.6554 27.0801 29.1754 27.9814C29.3981 28.3668 29.4567 28.8161 29.3421 29.2468C29.2261 29.6761 28.9501 30.0361 28.5647 30.2588L25.1021 32.2574C24.8447 32.4054 24.5594 32.4828 24.2701 32.4828ZM20.3327 28.2094C21.9834 28.2094 23.4727 29.0094 24.3794 30.3641L27.2847 28.6868C26.5634 27.2228 26.6167 25.5348 27.4421 24.1041C28.2674 22.6734 29.7047 21.7841 31.3314 21.6761V18.3214C29.7034 18.2134 28.2674 17.3241 27.4421 15.8934C26.6167 14.4641 26.5634 12.7748 27.2847 11.3108L24.3794 9.63343C23.4727 10.9894 21.9834 11.7881 20.3327 11.7881C18.6821 11.7881 17.1927 10.9881 16.2861 9.63343L13.3807 11.3108C14.1021 12.7748 14.0487 14.4628 13.2234 15.8934C12.3981 17.3241 10.9607 18.2134 9.33408 18.3214V21.6761C10.9621 21.7841 12.3981 22.6734 13.2234 24.1041C14.0487 25.5334 14.1021 27.2228 13.3807 28.6868L16.2861 30.3641C17.1927 29.0081 18.6821 28.2094 20.3327 28.2094Z" fill="#112D55"/>
<path d="M20.333 25C17.5757 25 15.333 22.756 15.333 20C15.333 17.244 17.5757 15 20.333 15C23.0903 15 25.333 17.244 25.333 20C25.333 22.756 23.0903 25 20.333 25ZM20.333 17C18.6783 17 17.333 18.3467 17.333 20C17.333 21.6533 18.6783 23 20.333 23C21.9877 23 23.333 21.6533 23.333 20C23.333 18.3467 21.9877 17 20.333 17Z" fill="#5BB789"/>
</svg>
