<svg width="129" height="28" viewBox="0 0 129 28" fill="none" xmlns="http://www.w3.org/2000/svg">
<path d="M26.5037 0H2.79645C1.25864 0 0 1.2028 0 2.67236V25.3276C0 26.7972 1.25864 28 2.79645 28H26.5037C28.0415 28 29.3002 26.7972 29.3002 25.3276V2.67236C29.3002 1.2028 28.0415 0 26.5037 0ZM10.3748 23.4004H8.02115C6.74085 23.4004 5.70361 22.4092 5.70361 21.1857V4.56049H7.98023C9.29663 4.56049 10.3748 5.5908 10.3748 6.84879V23.4004ZM17.4959 23.4395C16.5621 23.4395 15.804 22.7151 15.804 21.8228C15.804 20.9304 16.5621 20.206 17.4959 20.206C18.4296 20.206 19.1877 20.9304 19.1877 21.8228C19.1877 22.7151 18.4296 23.4395 17.4959 23.4395ZM22.5569 13.2169C22.3957 13.2169 22.2561 13.1548 22.0491 13.0651C20.4728 12.3821 18.2323 12.5477 16.7137 13.44C16.5645 13.5274 15.7944 13.9782 15.2024 14.8291C15.0484 15.0522 14.8173 15.4293 14.8823 15.4799C14.9641 15.5443 15.3973 15.02 16.2204 14.4749C16.5765 14.238 17.1349 13.877 17.9411 13.6516C18.7521 13.4262 19.3947 13.4584 19.5679 13.4699C19.9867 13.4975 20.4848 13.5274 21.0023 13.8356C21.291 14.008 21.7218 14.2633 21.7868 14.6267C21.936 15.4707 20.0276 16.432 19.3778 16.7609C17.8641 17.5244 17.4116 17.329 16.0206 18.196C15.4166 18.5708 14.9016 18.9365 14.5261 19.4793C13.7657 20.5786 13.7127 21.0063 13.6237 21.5307C13.5443 22.1608 13.6116 22.6461 13.2025 23.0278C12.7645 23.4119 11.9583 23.5154 11.3928 23.3199C11.3543 21.963 11.3278 20.5809 11.3182 19.1734C11.3085 17.7659 11.311 16.3791 11.3302 15.02C11.4866 13.6286 12.0185 12.1797 13.2434 11.2322C14.3649 10.3123 16.1313 10.3859 18.5403 10.0363C20.107 9.85922 22.066 9.33487 24.4726 8.72312C24.3715 10.6848 23.7506 13.1341 22.5521 13.2192L22.5569 13.2169Z" fill="white"/>
<path d="M41.0183 19.809C40.7728 20.0022 40.4984 20.0988 40.1952 20.0988C39.8631 20.0988 39.5599 19.9838 39.2831 19.7561C39.0088 19.5285 38.8716 19.2272 38.8716 18.8546C38.8716 18.6476 38.9293 18.4476 39.0449 18.2544C39.0593 18.2268 39.0737 18.1992 39.0882 18.1716C39.1026 18.144 39.1171 18.1164 39.1315 18.0888C39.1748 17.9784 39.247 17.7599 39.3481 17.4356C39.4492 17.1114 39.5551 16.7618 39.6634 16.3892C39.7717 16.0167 39.8775 15.6671 39.9786 15.3428C40.0797 15.0186 40.1447 14.8001 40.1736 14.6897C40.2169 14.5103 40.2963 14.1952 40.4118 13.7468C40.5273 13.2983 40.6621 12.7832 40.8137 12.2036C40.9653 11.6241 41.1242 11.0054 41.2902 10.3477C41.4563 9.69224 41.6127 9.07359 41.7571 8.49175C41.9015 7.9122 42.0314 7.39705 42.147 6.94859C42.2625 6.50013 42.3419 6.18505 42.3852 6.00567C42.4574 5.6745 42.6066 5.39162 42.8304 5.15704C43.0542 4.92247 43.355 4.80518 43.7305 4.80518C44.1059 4.80518 44.4356 4.93396 44.6739 5.18924C44.9121 5.44452 45.0324 5.75269 45.0324 6.11146C45.0758 6.8152 45.1431 7.51663 45.2394 8.21577C45.3333 8.91261 45.4247 9.61405 45.5114 10.3201C45.598 10.9548 45.6774 11.5873 45.7496 12.2174C45.8218 12.8453 45.9012 13.4708 45.9879 14.094C46.6232 12.7809 47.2465 11.4723 47.853 10.166C48.4594 8.85972 49.126 7.57183 49.848 6.30004C50.0213 5.99647 50.221 5.72969 50.4448 5.50201C50.6687 5.27433 50.9767 5.15935 51.3666 5.15935C51.8431 5.15935 52.1824 5.30423 52.387 5.59401C52.5891 5.88378 52.7263 6.22875 52.7985 6.63121C52.7985 6.67261 52.8105 6.7554 52.8322 6.87959C52.8538 7.00378 52.8707 7.13487 52.8875 7.27286C52.902 7.41085 52.9164 7.53963 52.9309 7.65692C52.9453 7.77421 52.9525 7.8547 52.9525 7.8961C53.0536 8.68263 53.1595 9.47146 53.2678 10.258C53.3761 11.0445 53.5036 11.8334 53.648 12.6199C53.7635 13.3121 53.8983 13.9906 54.0499 14.6621C54.2015 15.3313 54.4229 15.9914 54.7117 16.6422C54.7262 16.6698 54.7406 16.6905 54.755 16.7043C54.7695 16.7181 54.7839 16.7388 54.7984 16.7664C54.8417 16.8768 54.8802 16.9803 54.9187 17.0769C54.9548 17.1735 54.974 17.277 54.974 17.3874C54.974 17.7875 54.8393 18.0957 54.5721 18.3096C54.305 18.5235 54.0042 18.6315 53.6721 18.6315C53.4266 18.6315 53.1956 18.574 52.979 18.4545C52.7624 18.3372 52.5891 18.1463 52.4592 17.8841C52.2137 17.415 52.0115 16.8975 51.8527 16.3294C51.5495 15.3336 51.3112 14.3355 51.1379 13.3351C50.9647 12.3324 50.8058 11.3205 50.6614 10.2994C50.1705 11.2952 49.6964 12.2887 49.2416 13.2845C48.7867 14.2803 48.3054 15.2738 47.8 16.2697C47.6412 16.587 47.4775 16.8975 47.3115 17.2034C47.1454 17.5069 46.9312 17.776 46.6713 18.0106C46.397 18.259 46.0793 18.3832 45.7159 18.3832C45.326 18.3832 45.0036 18.282 44.7509 18.0819C44.4982 17.8818 44.2912 17.6357 44.1324 17.346C43.9736 17.0562 43.8508 16.7411 43.7642 16.403C43.6775 16.065 43.6126 15.7499 43.5692 15.4601C43.5115 15.0738 43.4561 14.6874 43.4056 14.2987C43.3551 13.9124 43.3069 13.526 43.2636 13.1373C43.0181 14.0917 42.7606 15.0439 42.4935 15.9983C42.2264 16.9527 41.9328 17.9048 41.6151 18.8592C41.5573 19.0386 41.4803 19.2111 41.3865 19.3767C41.2926 19.5423 41.1723 19.6871 41.0279 19.8113L41.0183 19.809Z" fill="white"/>
<path d="M64.4625 19.413C63.921 21.469 62.4025 23.6032 60.4796 24.6887C59.801 25.0935 58.7252 25.6408 57.9166 25.4983C57.1224 25.3879 56.6917 24.5277 56.8649 23.8263C56.9877 23.1456 57.9455 22.7546 58.629 22.3475C60.0344 21.492 61.3075 20.763 62.0728 19.1899C62.3158 18.6587 62.4723 18.04 62.5156 17.4697C62.5372 16.9706 62.5685 16.1519 62.0222 16.8648C61.63 17.3616 61.1799 17.8836 60.6168 18.2171C59.3124 19.0657 57.8853 18.4333 57.3005 17.1224C56.3884 15.255 56.4462 13.1116 56.6339 11.0946C56.7133 10.4323 56.8409 9.60438 57.5195 9.2824C58.0081 9.04323 58.7084 9.20651 59.0429 9.65037C59.3726 10.0597 59.3437 10.637 59.2691 11.1452C59.1271 12.1686 58.9057 14.5443 59.5146 15.3723C60.1981 15.823 61.4182 12.5136 61.5963 11.9686C61.8345 11.3177 61.9837 10.5749 62.4675 10.0758C63.0186 9.48019 64.063 9.62048 64.4553 10.3081C64.9438 11.205 64.8043 12.3089 64.8837 13.2955C64.9896 15.3148 65.081 17.4076 64.4721 19.3739L64.4625 19.4061V19.413Z" fill="white"/>
<path d="M74.8882 19.6791H67.0259L70.229 5.19043H72.0677L69.199 18.0693H75.2444L74.8882 19.6791Z" fill="white"/>
<path d="M86.1079 11.709C86.1079 12.2564 85.9803 12.7532 85.7276 13.2016C85.4725 13.6501 85.0538 14.0341 84.4666 14.3561C83.8794 14.6758 83.1069 14.9242 82.1466 15.0989C81.1864 15.2737 80 15.3657 78.5873 15.3726C78.5729 15.4462 78.5656 15.5244 78.5656 15.6049V15.8073C78.5656 16.1706 78.6186 16.5156 78.7245 16.8399C78.8304 17.1642 78.994 17.447 79.2178 17.6908C79.4392 17.9346 79.7256 18.1255 80.0746 18.2681C80.4235 18.4106 80.8399 18.4796 81.3188 18.4796C81.7977 18.4796 82.3416 18.3899 82.924 18.2106C83.5064 18.0312 84.0623 17.7782 84.5917 17.447L84.2644 19.0868C83.877 19.303 83.4125 19.4916 82.8783 19.6525C82.3416 19.8135 81.7423 19.8963 81.0781 19.8963C80.2791 19.8963 79.6077 19.779 79.0614 19.5421C78.5151 19.3053 78.0723 18.9902 77.7378 18.5969C77.4033 18.2014 77.1602 17.746 77.0134 17.2309C76.8642 16.7157 76.792 16.1729 76.792 15.6072C76.792 15.0001 76.8618 14.4159 77.0038 13.8525C77.1458 13.289 77.3455 12.7646 77.603 12.2794C77.8605 11.7941 78.1686 11.3503 78.5296 10.9478C78.8905 10.5453 79.2876 10.205 79.7256 9.9198C80.1636 9.63693 80.6329 9.41615 81.1335 9.26206C81.634 9.10798 82.1539 9.02979 82.6905 9.02979C83.2272 9.02979 83.7398 9.10108 84.1682 9.24137C84.5941 9.38395 84.9527 9.57714 85.2367 9.82321C85.5231 10.0693 85.7397 10.3545 85.8889 10.6787C86.0381 11.003 86.1103 11.3457 86.1103 11.7113L86.1079 11.709ZM84.4377 11.7895C84.4377 11.3641 84.2741 11.0352 83.9444 10.7983C83.6171 10.5614 83.1791 10.4442 82.6376 10.4442C82.2068 10.4442 81.7905 10.5338 81.3886 10.7132C80.9867 10.8926 80.6161 11.1387 80.2767 11.4515C79.9374 11.7642 79.6438 12.1391 79.3983 12.5738C79.1504 13.0084 78.97 13.4799 78.8593 13.9858C79.8676 13.9858 80.7268 13.9375 81.4319 13.8387C82.137 13.7421 82.7122 13.5972 83.1574 13.4086C83.6026 13.22 83.9275 12.9877 84.1321 12.7164C84.3366 12.4427 84.4401 12.1345 84.4401 11.7895H84.4377Z" fill="white"/>
<path d="M94.5135 11.1015C94.1958 10.906 93.8396 10.7473 93.4449 10.6254C93.0503 10.5035 92.6532 10.4437 92.2585 10.4437C91.5943 10.4437 91.0817 10.5886 90.7183 10.8784C90.3549 11.1682 90.172 11.5522 90.172 12.0329C90.172 12.2284 90.2057 12.4078 90.2731 12.5687C90.3405 12.7297 90.4391 12.8838 90.5691 13.0287C90.699 13.1736 90.8651 13.3139 91.0672 13.4496C91.2694 13.5853 91.5004 13.7301 91.7603 13.8842C92.5521 14.3235 93.12 14.7742 93.4714 15.2342C93.8204 15.6965 93.9961 16.2185 93.9961 16.7981C93.9961 17.189 93.919 17.5731 93.7674 17.9457C93.6158 18.3205 93.3727 18.6517 93.043 18.9369C92.7109 19.2244 92.2826 19.4543 91.7555 19.6291C91.2285 19.8039 90.5883 19.8913 89.8327 19.8913C89.6209 19.8913 89.3874 19.8775 89.1348 19.8499C88.8797 19.8223 88.6246 19.7832 88.3671 19.728C88.1095 19.6728 87.8617 19.6084 87.6258 19.5302C87.39 19.452 87.183 19.3623 87.0073 19.2611L87.3563 17.6835C87.4983 17.7778 87.6715 17.8721 87.8809 17.9664C88.0903 18.0607 88.3141 18.1457 88.5596 18.2193C88.8026 18.2929 89.0577 18.355 89.3225 18.401C89.5872 18.4493 89.8495 18.4723 90.1118 18.4723C90.817 18.4723 91.3464 18.3366 91.6953 18.0676C92.0443 17.7985 92.22 17.4236 92.22 16.9453C92.22 16.7705 92.1935 16.6072 92.1406 16.46C92.0876 16.3128 91.9938 16.1633 91.859 16.0138C91.7242 15.8643 91.5485 15.7149 91.3295 15.5631C91.1105 15.4113 90.8362 15.2411 90.5041 15.0525C89.7845 14.634 89.2527 14.197 88.9109 13.7416C88.5692 13.2863 88.3983 12.7711 88.3983 12.1985C88.3983 11.7799 88.4802 11.3797 88.6414 11.0003C88.8026 10.6185 89.0457 10.2827 89.3658 9.98837C89.6859 9.694 90.0902 9.45942 90.5787 9.28464C91.0648 9.10985 91.6352 9.02246 92.2826 9.02246C92.7904 9.02246 93.2717 9.07076 93.7289 9.16505C94.1838 9.25934 94.5712 9.38123 94.8889 9.52842L94.5183 11.0969L94.5135 11.1015Z" fill="white"/>
<path d="M102.873 10.7099H100.192L98.9983 16.1006C98.9574 16.3053 98.9141 16.5284 98.8731 16.7653C98.8322 17.0045 98.8106 17.1953 98.8106 17.3402C98.8106 17.6783 98.8876 17.9221 99.044 18.0693C99.2004 18.2188 99.4483 18.2924 99.7876 18.2924C99.8719 18.2924 99.9778 18.2786 100.11 18.2533C100.242 18.228 100.377 18.1935 100.514 18.1544C100.654 18.1153 100.789 18.0693 100.926 18.021C101.061 17.9704 101.181 17.9267 101.285 17.8876L100.962 19.3181C100.719 19.4169 100.445 19.502 100.137 19.571C99.8286 19.64 99.535 19.6745 99.2582 19.6745C98.8635 19.6745 98.5266 19.6262 98.2498 19.5296C97.9731 19.433 97.7469 19.2974 97.5688 19.118C97.3907 18.9386 97.2631 18.7224 97.1837 18.4671C97.1043 18.2119 97.0634 17.9267 97.0634 17.6093C97.0634 17.4184 97.0826 17.193 97.1211 16.9401C97.1597 16.6848 97.2054 16.4525 97.2607 16.2409L98.4857 10.7122H96.7192L97.0417 9.33235H98.7865L99.3376 6.85087C99.3665 6.83707 99.47 6.80718 99.6553 6.75658C99.8382 6.70599 100.04 6.65079 100.257 6.5887C100.476 6.5266 100.676 6.46911 100.859 6.41391C101.041 6.36102 101.145 6.33112 101.164 6.32422L100.51 9.33235H103.191L102.868 10.7122L102.873 10.7099Z" fill="white"/>
<path d="M112.15 16.5223C112.097 16.766 112.045 17.0397 111.994 17.3456C111.943 17.6515 111.9 17.9527 111.864 18.2517C111.828 18.5507 111.797 18.829 111.773 19.0842C111.749 19.3418 111.736 19.5396 111.736 19.6822H110.023C110.03 19.5534 110.04 19.3993 110.054 19.2199C110.069 19.0405 110.086 18.8543 110.11 18.6611C110.134 18.4679 110.155 18.2793 110.179 18.093C110.203 17.9067 110.228 17.7458 110.254 17.6124H110.213C110.004 17.9274 109.794 18.2241 109.578 18.5024C109.364 18.7807 109.125 19.0267 108.863 19.2383C108.601 19.4499 108.31 19.6178 107.987 19.7397C107.665 19.8616 107.284 19.9237 106.849 19.9237C106.413 19.9237 105.987 19.8478 105.614 19.6937C105.241 19.5396 104.921 19.3096 104.652 19.006C104.382 18.7002 104.177 18.3184 104.033 17.8607C103.889 17.4008 103.816 16.8672 103.816 16.2578C103.816 15.8852 103.857 15.4621 103.937 14.986C104.016 14.5122 104.153 14.027 104.346 13.5325C104.538 13.0381 104.793 12.5551 105.111 12.0837C105.431 11.6122 105.826 11.189 106.3 10.8188C106.774 10.4462 107.332 10.1472 107.977 9.92415C108.622 9.69877 109.368 9.58838 110.213 9.58838C110.75 9.58838 111.303 9.62748 111.876 9.70337C112.446 9.77926 113.014 9.87356 113.578 9.98165L112.148 16.5292L112.15 16.5223ZM111.83 10.644C111.582 10.5911 111.294 10.5428 110.962 10.5014C110.629 10.46 110.319 10.4416 110.03 10.4416C109.417 10.4416 108.875 10.5336 108.406 10.7199C107.936 10.9062 107.527 11.1476 107.183 11.4489C106.837 11.7502 106.545 12.0952 106.31 12.4861C106.074 12.8771 105.884 13.2772 105.744 13.6843C105.602 14.0937 105.501 14.4961 105.443 14.894C105.383 15.2919 105.354 15.6529 105.354 15.9772C105.354 16.3613 105.39 16.7085 105.46 17.0144C105.53 17.3226 105.641 17.5825 105.795 17.7986C105.946 18.0148 106.141 18.1827 106.377 18.3C106.613 18.4173 106.894 18.4771 107.219 18.4771C107.573 18.4771 107.903 18.4081 108.208 18.2701C108.516 18.1321 108.803 17.9458 109.072 17.709C109.34 17.4721 109.585 17.2007 109.804 16.8902C110.023 16.5798 110.22 16.2509 110.396 15.9036C110.572 15.5563 110.723 15.2022 110.846 14.8411C110.969 14.48 111.07 14.1305 111.147 13.7947L111.835 10.6463L111.83 10.644Z" fill="white"/>
<path d="M122.827 11.1708H122.753C122.613 11.0903 122.43 11.0121 122.202 10.9362C121.975 10.8603 121.749 10.8212 121.525 10.8212C121.121 10.8212 120.734 10.9454 120.363 11.1961C119.992 11.4467 119.656 11.7756 119.352 12.1873C119.049 12.5966 118.782 13.0658 118.556 13.5947C118.33 14.1214 118.151 14.6618 118.026 15.2161L117.02 19.68H115.254L116.777 12.8082C116.84 12.5253 116.905 12.2287 116.967 11.9182C117.03 11.6077 117.09 11.2972 117.143 10.9891C117.196 10.6786 117.244 10.3819 117.285 10.099C117.328 9.81617 117.36 9.5609 117.381 9.33092H119.1C119.078 9.5356 119.054 9.75178 119.025 9.97946C118.996 10.2071 118.967 10.4302 118.938 10.6441C118.91 10.858 118.881 11.0535 118.852 11.2259C118.823 11.4007 118.801 11.5341 118.787 11.6307H118.83C118.83 11.6307 119.285 10.8235 119.518 10.513C119.752 10.2025 119.997 9.93806 120.255 9.71958C120.512 9.5011 120.787 9.33092 121.075 9.20903C121.364 9.08714 121.679 9.02734 122.019 9.02734C122.216 9.02734 122.411 9.04574 122.606 9.08254C122.801 9.11934 122.974 9.15843 123.131 9.19983L122.823 11.1731L122.827 11.1708Z" fill="white"/>
<path d="M127.056 19.6539C126.88 19.7068 126.681 19.7505 126.457 19.785C126.235 19.8194 126.014 19.8355 125.795 19.8355C125.083 19.8355 124.548 19.6654 124.197 19.325C123.843 18.9846 123.667 18.527 123.667 17.9543C123.667 17.7864 123.684 17.5863 123.72 17.3564C123.757 17.1264 123.812 16.8435 123.889 16.5054L125.468 9.33009H127.224L125.636 16.5445C125.574 16.8274 125.528 17.0482 125.504 17.2023C125.48 17.3587 125.468 17.4898 125.468 17.5978C125.468 17.8738 125.547 18.0854 125.706 18.2303C125.865 18.3752 126.117 18.4488 126.464 18.4488C126.647 18.4488 126.808 18.4396 126.945 18.4189C127.082 18.3982 127.212 18.3683 127.333 18.3269L127.058 19.6516L127.056 19.6539ZM128.295 5.58602C128.295 5.88959 128.187 6.14947 127.973 6.36565C127.756 6.58183 127.492 6.68992 127.174 6.68992C126.856 6.68992 126.594 6.58413 126.363 6.37025C126.134 6.15867 126.019 5.89649 126.019 5.58602C126.019 5.27555 126.134 5.02257 126.363 4.82709C126.591 4.63161 126.861 4.53271 127.174 4.53271C127.487 4.53271 127.749 4.63161 127.968 4.83169C128.187 5.03177 128.295 5.28245 128.295 5.58602Z" fill="white"/>
</svg>
