<svg width="95" height="24" viewBox="0 0 95 24" fill="none" xmlns="http://www.w3.org/2000/svg">
<path d="M2.27201 17.467C2.01221 17.6879 1.72183 17.7984 1.4009 17.7984C1.0494 17.7984 0.728472 17.6669 0.435557 17.4065C0.14519 17.1462 0 16.8017 0 16.3757C0 16.139 0.0611382 15.9102 0.183398 15.6893C0.198681 15.6577 0.213962 15.6262 0.229244 15.5946C0.244527 15.563 0.259807 15.5315 0.27509 15.4999C0.320937 15.3737 0.397356 15.1239 0.504334 14.753C0.611311 14.3822 0.723383 13.9825 0.838002 13.5565C0.952621 13.1305 1.06469 12.7307 1.17167 12.3599C1.27865 11.9891 1.34742 11.7393 1.37798 11.613C1.42383 11.4079 1.50788 11.0476 1.63014 10.5348C1.7524 10.022 1.89503 9.43292 2.0555 8.7702C2.21597 8.10748 2.38409 7.40006 2.55983 6.64793C2.73558 5.89844 2.90115 5.19101 3.05397 4.52567C3.2068 3.86295 3.34434 3.27387 3.4666 2.76106C3.58886 2.24824 3.67291 1.88795 3.71876 1.68283C3.79517 1.30413 3.95308 0.980663 4.18996 0.712421C4.42684 0.444179 4.74522 0.310059 5.14257 0.310059C5.53992 0.310059 5.88888 0.457328 6.14104 0.749239C6.3932 1.04115 6.52055 1.39355 6.52055 1.8038C6.5664 2.60853 6.63771 3.41062 6.7396 4.21009C6.83893 5.00692 6.93572 5.80902 7.02742 6.61638C7.11912 7.34221 7.20317 8.06541 7.27958 8.78598C7.35599 9.50392 7.44004 10.2192 7.53174 10.9319C8.20417 9.43029 8.86386 7.93392 9.50573 6.44018C10.1476 4.94644 10.8531 3.47374 11.6173 2.01944C11.8007 1.67231 12.0121 1.36725 12.2489 1.10689C12.4858 0.846542 12.8119 0.715054 13.2245 0.715054C13.7288 0.715054 14.0879 0.880732 14.3045 1.21209C14.5184 1.54345 14.6636 1.93792 14.74 2.39814C14.74 2.44548 14.7527 2.54015 14.7757 2.68216C14.7986 2.82417 14.8164 2.97407 14.8342 3.13186C14.8495 3.28965 14.8648 3.43692 14.8801 3.57104C14.8954 3.70516 14.903 3.7972 14.903 3.84454C15.01 4.74394 15.1221 5.64597 15.2367 6.54537C15.3513 7.44477 15.4863 8.3468 15.6391 9.2462C15.7614 10.0378 15.904 10.8136 16.0645 11.5815C16.2249 12.3468 16.4593 13.1015 16.7649 13.8458C16.7802 13.8773 16.7955 13.901 16.8108 13.9168C16.8261 13.9325 16.8414 13.9562 16.8566 13.9878C16.9025 14.114 16.9432 14.2323 16.984 14.3428C17.0222 14.4532 17.0426 14.5716 17.0426 14.6978C17.0426 15.1554 16.8999 15.5078 16.6172 15.7524C16.3345 15.997 16.0161 16.1206 15.6646 16.1206C15.4048 16.1206 15.1603 16.0548 14.931 15.9181C14.7018 15.7839 14.5184 15.5657 14.3809 15.2659C14.1211 14.7294 13.9071 14.1377 13.739 13.4881C13.4181 12.3494 13.1659 11.208 12.9825 10.0641C12.7991 8.91747 12.631 7.76035 12.4782 6.59271C11.9586 7.73142 11.4568 8.86751 10.9754 10.0062C10.494 11.1449 9.98459 12.281 9.4497 13.4197C9.28159 13.7826 9.10839 14.1377 8.93264 14.4874C8.75689 14.8346 8.5302 15.1423 8.25512 15.4105C7.96475 15.6945 7.62853 15.8365 7.24392 15.8365C6.83129 15.8365 6.48999 15.7208 6.22255 15.492C5.9551 15.2632 5.73605 14.9818 5.56794 14.6505C5.39984 14.3191 5.26993 13.9588 5.17823 13.5723C5.08654 13.1857 5.01777 12.8254 4.97192 12.494C4.91079 12.0522 4.85221 11.6104 4.79872 11.166C4.74523 10.7242 4.69428 10.2824 4.64843 9.83791C4.38863 10.9293 4.11611 12.018 3.83338 13.1094C3.55065 14.2008 3.2399 15.2895 2.90369 16.3809C2.84256 16.586 2.76105 16.7833 2.66171 16.9726C2.56237 17.162 2.43502 17.3276 2.2822 17.4697L2.27201 17.467Z" fill="#5BB789"/>
<path d="M27.0854 17.0149C26.5123 19.366 24.9051 21.8064 22.8699 23.0477C22.1517 23.5106 21.0131 24.1365 20.1573 23.9734C19.3168 23.8472 18.8608 22.8636 19.0442 22.0615C19.1741 21.2831 20.1879 20.836 20.9112 20.3705C22.3987 19.3923 23.7461 18.5586 24.5561 16.7598C24.8134 16.1523 24.9789 15.4449 25.0248 14.7927C25.0477 14.222 25.0808 13.2858 24.5026 14.101C24.0874 14.6691 23.6112 15.2661 23.0151 15.6474C21.6346 16.6178 20.1242 15.8946 19.5052 14.3956C18.5399 12.2602 18.601 9.80918 18.7997 7.50282C18.8838 6.74543 19.0188 5.79869 19.737 5.43052C20.2541 5.15702 20.9953 5.34374 21.3493 5.85129C21.6983 6.3194 21.6677 6.97949 21.5888 7.56068C21.4385 8.73095 21.2042 11.4476 21.8486 12.3943C22.5719 12.9097 23.8633 9.12542 24.0518 8.50215C24.304 7.75791 24.4619 6.90848 24.9738 6.33781C25.5571 5.65668 26.6626 5.8171 27.0777 6.60342C27.5948 7.62905 27.4471 8.89137 27.5311 10.0196C27.6432 12.3285 27.74 14.7217 27.0956 16.9702L27.0854 17.007V17.0149Z" fill="#5BB789"/>
<path d="M38.1202 17.3198H29.7988L33.189 0.751953H35.135L32.0988 15.479H38.4971L38.1202 17.3198Z" fill="#5BB789"/>
<path d="M49.9945 8.20486C49.9945 8.83075 49.8595 9.3988 49.5921 9.91161C49.3221 10.4244 48.8789 10.8636 48.2574 11.2318C47.6359 11.5973 46.8183 11.8813 45.802 12.0812C44.7857 12.2811 43.53 12.3863 42.0349 12.3942C42.0196 12.4783 42.012 12.5677 42.012 12.6598V12.8912C42.012 13.3067 42.068 13.7012 42.1801 14.072C42.2922 14.4428 42.4654 14.7663 42.7022 15.045C42.9366 15.3238 43.2397 15.5421 43.609 15.7051C43.9783 15.8682 44.419 15.9471 44.9258 15.9471C45.4327 15.9471 46.0084 15.8445 46.6248 15.6394C47.2411 15.4342 47.8295 15.145 48.3899 14.7663L48.0435 16.6413C47.6334 16.8885 47.1418 17.1042 46.5764 17.2883C46.0084 17.4724 45.3741 17.567 44.6711 17.567C43.8255 17.567 43.1149 17.4329 42.5367 17.162C41.9585 16.8912 41.4898 16.5309 41.1358 16.0812C40.7817 15.6288 40.5245 15.1081 40.3691 14.5191C40.2112 13.93 40.1348 13.3093 40.1348 12.6624C40.1348 11.9681 40.2086 11.3002 40.3589 10.6559C40.5092 10.0115 40.7206 9.41194 40.9931 8.85705C41.2657 8.30216 41.5917 7.7946 41.9738 7.33438C42.3558 6.87417 42.7761 6.48495 43.2397 6.15885C43.7032 5.83539 44.1999 5.58292 44.7297 5.40672C45.2595 5.23053 45.8097 5.14111 46.3777 5.14111C46.9457 5.14111 47.4882 5.22264 47.9416 5.38306C48.3924 5.54611 48.7719 5.76701 49.0725 6.0484C49.3756 6.32979 49.6048 6.65589 49.7628 7.0267C49.9207 7.3975 49.9971 7.78934 49.9971 8.20748L49.9945 8.20486ZM48.2269 8.2969C48.2269 7.81038 48.0537 7.43432 47.7047 7.16345C47.3583 6.89258 46.8947 6.75845 46.3217 6.75845C45.8657 6.75845 45.4251 6.86102 44.9997 7.06614C44.5743 7.27127 44.1821 7.55266 43.823 7.91032C43.4638 8.26797 43.1531 8.69663 42.8933 9.19367C42.6309 9.6907 42.4399 10.2298 42.3227 10.8084C43.3899 10.8084 44.2993 10.7532 45.0456 10.6401C45.7919 10.5296 46.4006 10.3639 46.8718 10.1483C47.343 9.93265 47.6869 9.66704 47.9034 9.35672C48.1199 9.04377 48.2294 8.69137 48.2294 8.2969H48.2269Z" fill="#5BB789"/>
<path d="M58.8907 7.51066C58.5545 7.28712 58.1775 7.10567 57.7597 6.96629C57.342 6.82691 56.9218 6.75853 56.504 6.75853C55.8011 6.75853 55.2585 6.92421 54.8739 7.25557C54.4893 7.58692 54.2957 8.02611 54.2957 8.57574C54.2957 8.79927 54.3314 9.0044 54.4027 9.18849C54.474 9.37258 54.5784 9.54877 54.716 9.71445C54.8535 9.88013 55.0293 10.0406 55.2432 10.1957C55.4572 10.3509 55.7017 10.5165 55.9768 10.6927C56.8148 11.195 57.4159 11.7105 57.7878 12.2365C58.1571 12.765 58.343 13.362 58.343 14.0247C58.343 14.4718 58.2615 14.911 58.101 15.337C57.9406 15.7657 57.6833 16.1444 57.3344 16.4705C56.9829 16.7992 56.5295 17.0622 55.9717 17.262C55.4139 17.4619 54.7364 17.5618 53.9366 17.5618C53.7124 17.5618 53.4654 17.5461 53.1979 17.5145C52.9279 17.4829 52.6579 17.4382 52.3854 17.3751C52.1129 17.312 51.8505 17.2384 51.6009 17.149C51.3513 17.0595 51.1322 16.957 50.9463 16.8413L51.3156 15.0372C51.4659 15.145 51.6493 15.2529 51.8709 15.3607C52.0925 15.4685 52.3294 15.5658 52.5892 15.65C52.8464 15.7341 53.1164 15.8051 53.3966 15.8577C53.6768 15.9129 53.9544 15.9392 54.232 15.9392C54.9783 15.9392 55.5387 15.7841 55.908 15.4764C56.2773 15.1687 56.4633 14.74 56.4633 14.193C56.4633 13.9932 56.4352 13.8065 56.3792 13.6381C56.3232 13.4698 56.2239 13.2989 56.0812 13.128C55.9386 12.957 55.7526 12.7861 55.5208 12.6125C55.2891 12.4389 54.9987 12.2443 54.6472 12.0287C53.8856 11.5501 53.3227 11.0504 52.961 10.5297C52.5994 10.009 52.4185 9.41991 52.4185 8.76509C52.4185 8.28646 52.5051 7.82887 52.6758 7.39495C52.8464 6.9584 53.1037 6.57444 53.4424 6.23783C53.7812 5.90121 54.2091 5.63297 54.7262 5.4331C55.2407 5.23323 55.8443 5.1333 56.5295 5.1333C57.0669 5.1333 57.5764 5.18853 58.0603 5.29635C58.5417 5.40417 58.9518 5.54355 59.288 5.71186L58.8957 7.5054L58.8907 7.51066Z" fill="#5BB789"/>
<path d="M67.7375 7.0639H64.9001L63.6367 13.2282C63.5934 13.4623 63.5476 13.7174 63.5043 13.9882C63.461 14.2617 63.438 14.48 63.438 14.6457C63.438 15.0323 63.5195 15.311 63.6851 15.4793C63.8507 15.6503 64.113 15.7344 64.4721 15.7344C64.5613 15.7344 64.6734 15.7187 64.8135 15.6897C64.9536 15.6608 65.0962 15.6213 65.2414 15.5766C65.3891 15.5319 65.5317 15.4793 65.6769 15.4241C65.8196 15.3663 65.9469 15.3163 66.0565 15.2716L65.7151 16.9073C65.4579 17.0204 65.1675 17.1177 64.8415 17.1966C64.5155 17.2755 64.2047 17.315 63.9118 17.315C63.4941 17.315 63.1375 17.2597 62.8446 17.1493C62.5516 17.0388 62.3122 16.8837 62.1237 16.6785C61.9353 16.4734 61.8003 16.2262 61.7162 15.9343C61.6322 15.6424 61.5889 15.3163 61.5889 14.9534C61.5889 14.7351 61.6092 14.4774 61.65 14.1881C61.6907 13.8962 61.7391 13.6306 61.7977 13.3886L63.0942 7.06653H61.2246L61.5659 5.48864H63.4126L63.9958 2.65106C64.0264 2.63528 64.1359 2.60109 64.3321 2.54324C64.5257 2.48538 64.7396 2.42227 64.9688 2.35126C65.2006 2.28025 65.412 2.21451 65.6056 2.15139C65.7992 2.09091 65.9087 2.05672 65.9291 2.04883L65.2363 5.48864H68.0737L67.7324 7.06653L67.7375 7.0639Z" fill="#5BB789"/>
<path d="M77.5559 13.7092C77.4999 13.988 77.4439 14.3009 77.3904 14.6507C77.3369 15.0004 77.291 15.3449 77.2528 15.6868C77.2146 16.0287 77.1815 16.3469 77.156 16.6388C77.1306 16.9334 77.1178 17.1595 77.1178 17.3226H75.3043C75.3119 17.1753 75.3221 16.9991 75.3374 16.794C75.3527 16.5888 75.3705 16.3758 75.396 16.1549C75.4215 15.934 75.4444 15.7184 75.4699 15.5054C75.4953 15.2923 75.5208 15.1083 75.5488 14.9557H75.5055C75.2839 15.316 75.0623 15.6553 74.8331 15.9735C74.6064 16.2917 74.3542 16.5731 74.0766 16.815C73.799 17.057 73.4908 17.2489 73.1495 17.3883C72.8082 17.5277 72.4057 17.5987 71.9447 17.5987C71.4837 17.5987 71.0328 17.5119 70.638 17.3357C70.2433 17.1595 69.9045 16.8965 69.6192 16.5494C69.3339 16.1996 69.1174 15.7631 68.9646 15.2397C68.8118 14.7138 68.7354 14.1037 68.7354 13.4068C68.7354 12.9807 68.7787 12.4968 68.8627 11.9525C68.9468 11.4107 69.092 10.8558 69.2957 10.2904C69.4995 9.72501 69.7695 9.17275 70.1057 8.63363C70.4444 8.09452 70.8622 7.61063 71.364 7.18723C71.8657 6.7612 72.4567 6.41932 73.1393 6.16423C73.8219 5.90651 74.6115 5.78027 75.5055 5.78027C76.0735 5.78027 76.6593 5.82498 77.2655 5.91176C77.8692 5.99855 78.4703 6.10637 79.0663 6.22997L77.5534 13.7171L77.5559 13.7092ZM77.2172 6.98736C76.9548 6.92688 76.6492 6.87165 76.2977 6.82431C75.9462 6.77698 75.6176 6.75594 75.3119 6.75594C74.6624 6.75594 74.0893 6.86113 73.5927 7.07415C73.096 7.28716 72.663 7.56329 72.2987 7.9078C71.9319 8.25231 71.6237 8.64678 71.3741 9.09385C71.1245 9.54092 70.9233 9.99851 70.7756 10.464C70.6253 10.9321 70.5183 11.3923 70.4572 11.8473C70.3935 12.3022 70.3629 12.7151 70.3629 13.0859C70.3629 13.5251 70.4012 13.9222 70.475 14.272C70.5489 14.6244 70.6661 14.9215 70.8291 15.1687C70.9895 15.4159 71.1958 15.6079 71.4455 15.742C71.6951 15.8762 71.9931 15.9445 72.3369 15.9445C72.7114 15.9445 73.0603 15.8656 73.3838 15.7079C73.7098 15.5501 74.0129 15.337 74.2982 15.0662C74.5809 14.7953 74.8407 14.485 75.0725 14.13C75.3043 13.7749 75.5132 13.3989 75.6991 13.0018C75.885 12.6047 76.0455 12.1997 76.1754 11.7868C76.3053 11.3739 76.4123 10.9742 76.4938 10.5902L77.2223 6.98999L77.2172 6.98736Z" fill="#5BB789"/>
<path d="M88.8575 7.58967H88.7785C88.6308 7.49763 88.4372 7.40821 88.1952 7.32143C87.9558 7.23464 87.7164 7.18993 87.4795 7.18993C87.0516 7.18993 86.6415 7.33195 86.2493 7.6186C85.857 7.90525 85.5004 8.28131 85.1795 8.75205C84.8586 9.22016 84.5758 9.75664 84.3364 10.3615C84.097 10.9637 83.9085 11.5817 83.776 12.2155L82.7114 17.32H80.8418L82.4541 9.4621C82.5203 9.13863 82.5891 8.79939 82.6553 8.44436C82.7215 8.08934 82.7852 7.73431 82.8413 7.38191C82.8973 7.02688 82.9483 6.68764 82.9916 6.36417C83.0374 6.0407 83.0705 5.74879 83.0934 5.48581H84.912C84.8891 5.71986 84.8637 5.96707 84.8331 6.22742C84.8025 6.48777 84.772 6.74286 84.7414 6.98744C84.7108 7.23201 84.6803 7.45555 84.6497 7.65278C84.6191 7.85265 84.5962 8.00518 84.5809 8.11563H84.6268C84.6268 8.11563 85.1082 7.19257 85.3552 6.83754C85.6023 6.48251 85.8621 6.18008 86.1347 5.93025C86.4072 5.68042 86.6976 5.48581 87.0032 5.34643C87.3089 5.20705 87.6425 5.13867 88.0017 5.13867C88.2105 5.13867 88.4168 5.15971 88.6232 5.20179C88.8295 5.24387 89.0128 5.28857 89.1784 5.33591L88.8524 7.5923L88.8575 7.58967Z" fill="#5BB789"/>
<path d="M93.3324 17.2911C93.1465 17.3516 92.9351 17.4015 92.6982 17.441C92.4639 17.4804 92.2295 17.4988 91.9977 17.4988C91.2438 17.4988 90.6783 17.3042 90.3065 16.915C89.932 16.5258 89.7461 16.0025 89.7461 15.3476C89.7461 15.1557 89.7639 14.9269 89.8022 14.6639C89.8404 14.4009 89.8989 14.0774 89.9804 13.6909L91.6513 5.48581H93.5107L91.8296 13.7356C91.7634 14.059 91.715 14.3115 91.6895 14.4877C91.6641 14.6665 91.6513 14.8164 91.6513 14.94C91.6513 15.2556 91.7354 15.4975 91.9035 15.6632C92.0716 15.8289 92.339 15.9131 92.7058 15.9131C92.8994 15.9131 93.07 15.9025 93.2152 15.8789C93.3604 15.8552 93.498 15.821 93.6253 15.7737L93.335 17.2885L93.3324 17.2911ZM94.6442 1.20446C94.6442 1.5516 94.5295 1.84877 94.3028 2.09597C94.0736 2.34317 93.7934 2.46678 93.4572 2.46678C93.121 2.46678 92.8434 2.3458 92.5989 2.10123C92.3569 1.85929 92.2346 1.55949 92.2346 1.20446C92.2346 0.849433 92.3569 0.560152 92.5989 0.336617C92.8408 0.113082 93.1261 0 93.4572 0C93.7883 0 94.066 0.113083 94.2977 0.341878C94.5295 0.570672 94.6442 0.857323 94.6442 1.20446Z" fill="#5BB789"/>
</svg>
