<svg width="41" height="40" viewBox="0 0 41 40" fill="none" xmlns="http://www.w3.org/2000/svg">
<path d="M31.9997 10.2533V21.3333C31.9997 21.8853 31.5517 22.3333 30.9997 22.3333C30.4477 22.3333 29.9997 21.8853 29.9997 21.3333V10.2533C29.9997 9.57467 29.237 9 28.333 9H12.333C11.429 9 10.6663 9.57467 10.6663 10.2533V21.6667H19.2797C19.8317 21.6667 20.2797 22.1147 20.2797 22.6667C20.2797 23.2187 19.8317 23.6667 19.2797 23.6667H9.33301V26.04C9.33301 26.5693 9.76367 27 10.293 27H19.5463C20.0983 27 20.5463 27.448 20.5463 28C20.5463 28.552 20.0983 29 19.5463 29H10.293C8.66101 29 7.33301 27.672 7.33301 26.04V23.3333C7.33301 22.532 7.91167 21.8933 8.66634 21.7347V10.2533C8.66634 8.46 10.3103 7 12.333 7H28.333C30.3557 7 31.9997 8.46 31.9997 10.2533Z" fill="#112D55"/>
<path d="M25.6667 17.6665C21.4387 17.6665 18 21.1065 18 25.3332C18 29.5598 21.4387 32.9998 25.6667 32.9998C29.8947 32.9998 33.3333 29.5598 33.3333 25.3332C33.3333 21.1065 29.8947 17.6665 25.6667 17.6665ZM25.6667 30.9998C22.5413 30.9998 20 28.4572 20 25.3332C20 22.2092 22.5413 19.6665 25.6667 19.6665C28.792 19.6665 31.3333 22.2092 31.3333 25.3332C31.3333 28.4572 28.792 30.9998 25.6667 30.9998ZM27.7067 23.2932C28.0973 23.6838 28.0973 24.3172 27.7067 24.7078L25.04 27.3745C24.8453 27.5692 24.5893 27.6678 24.3333 27.6678C24.0773 27.6678 23.8213 27.5705 23.6267 27.3745C23.236 26.9838 23.236 26.3505 23.6267 25.9598L26.2933 23.2932C26.684 22.9025 27.316 22.9025 27.7067 23.2932ZM27 28.9332C26.4853 28.9332 26.0667 28.5145 26.0667 27.9998C26.0667 27.4852 26.4853 27.0665 27 27.0665C27.5147 27.0665 27.9333 27.4852 27.9333 27.9998C27.9333 28.5145 27.5147 28.9332 27 28.9332ZM24.3333 23.5998C23.8187 23.5998 23.4 23.1812 23.4 22.6665C23.4 22.1518 23.8187 21.7332 24.3333 21.7332C24.848 21.7332 25.2667 22.1518 25.2667 22.6665C25.2667 23.1812 24.848 23.5998 24.3333 23.5998Z" fill="#5BB789"/>
</svg>
